<svg width="136" height="23" viewBox="0 0 136 23" fill="none" xmlns="http://www.w3.org/2000/svg">
<g clip-path="url(#clip0_46_733)">
<path d="M84.2712 4.92375L82.2816 2.13867H83.2665L84.7833 4.33536L86.3001 2.13867H87.2851L85.2955 4.92375L87.3836 7.84613H86.3986L84.7833 5.53176L83.168 7.84613H82.1831L84.2712 4.92375Z" fill="#333333"/>
<path d="M96.5041 4.86394C96.5041 5.80538 96.2677 6.53107 95.7949 7.04101C95.3221 7.57057 94.6721 7.82554 93.8447 7.82554C93.3326 7.82554 92.8795 7.70786 92.4855 7.4725C92.0915 7.23715 91.7764 6.88411 91.5597 6.433C91.343 5.9819 91.2445 5.45234 91.2445 4.86394C91.2445 3.92251 91.4809 3.19682 91.9537 2.68687C92.4264 2.15732 93.0765 1.90234 93.9038 1.90234C94.7115 1.90234 95.3418 2.17693 95.8146 2.70649C96.2677 3.23604 96.5041 3.96173 96.5041 4.86394ZM92.1309 4.86394C92.1309 5.58963 92.2688 6.15842 92.5643 6.53107C92.8598 6.92333 93.2932 7.09985 93.8644 7.09985C94.4357 7.09985 94.8691 6.90372 95.1646 6.53107C95.46 6.15842 95.5979 5.58963 95.5979 4.86394C95.5979 4.13825 95.46 3.58908 95.1646 3.21643C94.8691 2.84378 94.4357 2.64765 93.8644 2.64765C93.2932 2.64765 92.8598 2.82417 92.584 3.19682C92.2688 3.58908 92.1309 4.13825 92.1309 4.86394Z" fill="#333333"/>
<path d="M104.108 3.74613H106.708V7.45303C106.294 7.59032 105.9 7.68839 105.467 7.74723C105.053 7.80607 104.561 7.8453 104.009 7.8453C102.847 7.8453 101.941 7.49226 101.311 6.8058C100.661 6.11933 100.345 5.15828 100.345 3.92265C100.345 3.13812 100.503 2.43204 100.818 1.84364C101.133 1.25525 101.606 0.78453 102.197 0.470718C102.788 0.156906 103.497 0 104.305 0C105.112 0 105.881 0.156906 106.59 0.451105L106.235 1.23563C105.546 0.941436 104.876 0.804143 104.246 0.804143C103.32 0.804143 102.591 1.07873 102.059 1.6279C101.527 2.17707 101.271 2.94199 101.271 3.92265C101.271 4.94254 101.527 5.72707 102.02 6.25662C102.532 6.78618 103.261 7.06077 104.246 7.06077C104.778 7.06077 105.29 7.00193 105.802 6.88425V4.53066H104.088V3.74613H104.108Z" fill="#333333"/>
<path d="M114.312 7.84516V6.92333C114.016 7.27637 113.74 7.53134 113.465 7.64902C113.189 7.7667 112.834 7.84516 112.401 7.84516C111.83 7.84516 111.377 7.70786 111.061 7.41366C110.746 7.11947 110.569 6.70759 110.569 6.15842C110.569 5.00124 111.495 4.39323 113.346 4.33439L114.312 4.29516V3.94212C114.312 3.49102 114.213 3.15759 114.016 2.94185C113.819 2.7261 113.504 2.62803 113.09 2.62803C112.618 2.62803 112.066 2.76533 111.475 3.05953L111.199 2.39267C111.475 2.23577 111.79 2.11809 112.125 2.03964C112.46 1.96118 112.795 1.90234 113.13 1.90234C113.819 1.90234 114.312 2.05925 114.647 2.35345C114.981 2.64765 115.139 3.13798 115.139 3.80483V7.84516H114.312ZM112.559 7.11947C113.09 7.11947 113.524 6.96256 113.839 6.66836C114.154 6.37416 114.312 5.96228 114.312 5.43273V4.92278L113.445 4.96201C112.756 4.98162 112.263 5.0993 111.948 5.27582C111.633 5.47195 111.495 5.76615 111.495 6.15842C111.495 6.47223 111.593 6.70759 111.771 6.86449C111.948 7.04101 112.204 7.11947 112.559 7.11947Z" fill="#333333"/>
<path d="M126.328 7.84466V4.11815C126.328 3.66704 126.229 3.31401 126.032 3.09826C125.835 2.8629 125.54 2.76483 125.126 2.76483C124.594 2.76483 124.181 2.92174 123.925 3.23555C123.669 3.54936 123.531 4.02008 123.531 4.66732V7.84466H122.664V4.11815C122.664 3.66704 122.565 3.31401 122.368 3.09826C122.172 2.8629 121.876 2.76483 121.443 2.76483C120.891 2.76483 120.497 2.92174 120.241 3.25517C119.985 3.58859 119.867 4.11815 119.867 4.86345V7.84466H119V2.01953H119.867V2.94135C120.024 2.66677 120.28 2.4118 120.576 2.25489C120.871 2.09798 121.206 2.01953 121.581 2.01953C122.487 2.01953 123.058 2.33334 123.334 2.98058H123.373C123.55 2.68638 123.787 2.45102 124.122 2.2745C124.437 2.09798 124.811 2.01953 125.225 2.01953C125.875 2.01953 126.367 2.17644 126.683 2.50986C126.998 2.84329 127.175 3.37284 127.175 4.09854V7.82505H126.328V7.84466Z" fill="#333333"/>
<path d="M133.892 7.84499C133.045 7.84499 132.375 7.59002 131.883 7.08008C131.39 6.57013 131.154 5.84444 131.154 4.94223C131.154 4.02041 131.39 3.29472 131.844 2.74555C132.297 2.19638 132.907 1.94141 133.675 1.94141C134.404 1.94141 134.956 2.17677 135.389 2.64748C135.803 3.1182 136.02 3.74582 136.02 4.51074V5.05991H132.06C132.08 5.72676 132.257 6.23671 132.572 6.58974C132.888 6.94278 133.341 7.1193 133.932 7.1193C134.483 7.1193 135.015 7.02124 135.567 6.80549L135.764 7.49195C135.448 7.62925 135.173 7.72731 134.897 7.76654C134.601 7.80577 134.286 7.84499 133.892 7.84499ZM133.656 2.64748C133.203 2.64748 132.828 2.80439 132.553 3.09859C132.277 3.39279 132.119 3.80466 132.06 4.33422H135.054C135.054 3.78505 134.936 3.37317 134.68 3.07897C134.424 2.78478 134.109 2.64748 133.656 2.64748Z" fill="#333333"/>
<path d="M78.4403 0.78453V0H74.1656V7.8453H78.4403V7.04115H75.0521V4.31491H78.4403V3.53038H75.0521V0.78453H78.4403Z" fill="#333333"/>
<path d="M55.5504 0.0390625C49.4241 0.0390625 44.4403 5.00121 44.4403 11.1009C44.4403 17.2006 49.4241 22.1628 55.5504 22.1628C61.6767 22.1628 66.6605 17.2006 66.6605 11.1009C66.6605 5.00121 61.6964 0.0390625 55.5504 0.0390625ZM55.5504 17.946C51.7485 17.946 48.6755 14.8863 48.6755 11.1009C48.6755 7.31558 51.7485 4.25591 55.5504 4.25591C59.3522 4.25591 62.4252 7.31558 62.4252 11.1009C62.4252 14.8667 59.3522 17.946 55.5504 17.946Z" fill="#333333"/>
<path d="M22.2202 11.1009C22.2202 12.0031 22.102 12.8661 21.905 13.7095C21.5307 15.2786 20.8019 16.7103 19.8366 17.9263H11.1101V13.7095H17.4531C17.7879 12.9054 17.9652 12.0228 17.9652 11.1009C17.9652 7.31558 14.8922 4.25591 11.0904 4.25591C7.28853 4.25591 4.21553 7.31558 4.21553 11.1009C4.21553 12.0228 4.39282 12.9054 4.72769 13.7095C5.75203 16.1808 8.21437 17.9263 11.0707 17.9263V22.1628C7.52491 22.1628 4.37312 20.5153 2.32445 17.946C1.39861 16.7103 0.689455 15.2786 0.31518 13.7095C0.118192 12.8661 0 12.0031 0 11.1009C0 4.9816 4.98378 0.0390625 11.1101 0.0390625C17.2364 0.0390625 22.2202 4.9816 22.2202 11.1009Z" fill="#333333"/>
<path d="M44.4403 2.01953C44.4403 4.60848 43.5539 6.98168 42.0568 8.86455C41.4264 9.6687 40.6778 10.3748 39.8505 10.9828C38.0185 12.3165 35.7532 13.101 33.3105 13.101C29.5087 13.101 26.4357 16.1607 26.4357 19.946H22.2004C22.2004 17.3571 23.0869 14.9839 24.584 13.101C25.2143 12.2969 25.9629 11.5908 26.7902 10.9828C28.6222 9.64908 30.8876 8.86455 33.3302 8.86455C37.1321 8.86455 40.2051 5.80489 40.2051 2.01953H44.4403Z" fill="#03C03C"/>
<path d="M44.4403 19.9066H40.2051C40.2051 16.1213 37.1321 13.0616 33.3302 13.0616C35.7728 13.0616 38.0185 12.2771 39.8702 10.9434C40.6975 11.5514 41.4461 12.2574 42.0764 13.0616C43.5538 14.9641 44.4403 17.3373 44.4403 19.9066Z" fill="#333333"/>
<path d="M33.3302 8.84502C30.8876 8.84502 28.6419 9.62955 26.7902 10.9633C25.9629 10.3552 25.2143 9.64916 24.584 8.84502C23.0869 6.96215 22.2004 4.58895 22.2004 2H26.4357C26.4554 5.78536 29.5481 8.84502 33.3302 8.84502Z" fill="#333333"/>
<path d="M97.4692 14.5532C97.2919 14.3767 97.0753 14.2394 96.8389 14.1413C96.6025 14.0433 96.3464 13.9844 96.0903 13.9844H90.9686L93.5492 10.964L92.7612 10.2383L89.1761 14.4159L89.964 15.1612H96.1888C96.4055 15.1612 96.5828 15.2397 96.7404 15.3966C96.898 15.5535 96.9768 15.73 96.9768 15.9457V16.8283C96.9768 17.0245 96.9177 17.201 96.7798 17.3383C96.6419 17.4756 96.4843 17.5344 96.307 17.5344H86.8713C86.6152 17.5344 86.4182 17.4363 86.241 17.2598C86.0834 17.0637 86.0243 16.8676 86.0637 16.6322L86.4379 14.8082L85.3742 14.6316L84.9014 16.8087C84.862 17.0245 84.7439 17.201 84.5863 17.3383C84.409 17.4756 84.212 17.554 83.9953 17.554H83.0695H82.1436C81.9072 17.554 81.7102 17.4756 81.5527 17.299C81.3951 17.1421 81.2966 16.9264 81.2966 16.691V15.9065C81.2966 15.6319 81.2375 15.377 81.139 15.1416C81.0405 14.9062 80.9026 14.7101 80.7253 14.5336C80.548 14.3571 80.3313 14.2198 80.095 14.1217C79.8586 14.0236 79.6025 13.9648 79.3267 13.9648H76.3522C76.0567 13.9648 75.7809 14.0236 75.5248 14.1413C75.2688 14.259 75.0324 14.4159 74.8551 14.5924C74.6581 14.7886 74.5005 15.0043 74.402 15.2593C74.2838 15.5142 74.2247 15.7888 74.2247 16.083V22.0847H75.3082V16.0634C75.3082 15.8281 75.387 15.6123 75.5642 15.4358C75.7415 15.2593 75.9385 15.1612 76.1552 15.1612H76.8447L76.5689 16.6322C76.5098 16.9264 76.5295 17.201 76.6083 17.456C76.6871 17.7109 76.8053 17.9463 76.9629 18.1424C77.1204 18.3386 77.3371 18.4955 77.5735 18.6327C77.8099 18.7504 78.0857 18.8093 78.3812 18.8093H79.9768C80.2131 18.8093 80.4101 18.77 80.5677 18.672C80.7253 18.5935 80.8632 18.417 80.9617 18.1816C81.139 18.3974 81.336 18.5543 81.5921 18.6524C81.8284 18.7504 82.0845 18.7897 82.3406 18.7897H83.0695H83.9362C84.2317 18.7897 84.5272 18.7112 84.8029 18.5543C85.0787 18.3974 85.2954 18.2013 85.4333 17.9659C85.4727 18.0836 85.5515 18.1816 85.65 18.2993C85.7485 18.3974 85.8667 18.4955 85.9849 18.5739C86.1228 18.6524 86.2607 18.7112 86.3985 18.7504C86.5561 18.7897 86.694 18.8289 86.8319 18.8289H87.7184H96.0903C96.3464 18.8289 96.6025 18.77 96.8389 18.672C97.0753 18.5739 97.2919 18.4366 97.4692 18.2601C97.6465 18.0836 97.7844 17.8874 97.9026 17.6325C98.0011 17.3971 98.0602 17.1421 98.0602 16.8676V15.9065C98.0602 15.6319 98.0011 15.377 97.9026 15.1416C97.8041 14.9258 97.6662 14.7297 97.4692 14.5532ZM80.1934 17.554H78.2433C78.0266 17.554 77.8493 17.4756 77.7311 17.3383C77.6129 17.1814 77.5735 17.0245 77.6129 16.8283L77.9084 15.2004H79.4252C79.6222 15.2004 79.7995 15.2789 79.9374 15.4162C80.0753 15.5535 80.154 15.73 80.154 15.9261V17.554H80.1934Z" fill="#333333"/>
<path d="M91.8157 10.1213L91.2444 9.61133L88.4669 12.8867L89.0382 13.3575L91.8157 10.1213Z" fill="#333333"/>
<path d="M108.185 14.5532C108.008 14.3766 107.811 14.2393 107.575 14.1413C107.338 14.0432 107.082 13.9844 106.806 13.9844H106.058C105.625 13.9844 105.231 14.1217 104.896 14.3963C104.561 14.6708 104.344 15.0435 104.265 15.475L104.049 16.6714C103.99 16.946 104.009 17.2206 104.088 17.4755C104.167 17.7305 104.285 17.9659 104.443 18.162C104.6 18.3581 104.817 18.515 105.053 18.6523C105.29 18.77 105.565 18.8288 105.861 18.8288H107.063C107.161 18.8288 107.279 18.8288 107.397 18.8092C107.516 18.7896 107.614 18.77 107.693 18.7112L107.673 18.8877C107.654 19.28 107.535 19.6134 107.319 19.9076C107.122 20.2018 106.826 20.3979 106.452 20.5156L104.777 21.0844L105.112 22.1435L106.728 21.5943C107.043 21.4962 107.319 21.3393 107.555 21.1628C107.811 20.9667 108.028 20.7509 108.205 20.5156C108.382 20.2606 108.52 19.986 108.619 19.6918C108.717 19.3976 108.757 19.0838 108.757 18.77V15.9065C108.757 15.6515 108.698 15.3965 108.599 15.1612C108.501 14.9258 108.363 14.7297 108.185 14.5532ZM107.673 17.554H105.723C105.526 17.554 105.368 17.4755 105.231 17.3382C105.112 17.2009 105.073 17.0244 105.093 16.8283L105.309 15.7692C105.349 15.5927 105.428 15.4554 105.546 15.3573C105.664 15.2592 105.822 15.2004 105.999 15.2004H106.925C107.122 15.2004 107.299 15.2788 107.437 15.4161C107.575 15.5534 107.654 15.73 107.654 15.9261V17.554H107.673Z" fill="#333333"/>
<path d="M127.727 14.5532C127.549 14.3767 127.333 14.2394 127.096 14.1413C126.86 14.0432 126.604 13.9844 126.348 13.9844H121.226L123.806 10.964L123.019 10.2383L119.433 14.4159L120.221 15.1612H126.446C126.663 15.1612 126.84 15.2397 126.998 15.3966C127.155 15.5535 127.234 15.73 127.234 15.9457V16.8283C127.234 17.0245 127.175 17.201 127.037 17.3383C126.899 17.4756 126.742 17.5344 126.564 17.5344H116.695C116.459 17.5344 116.262 17.456 116.104 17.3187C115.927 17.1618 115.848 16.9852 115.848 16.7499V14.5728H114.765V18.8485C114.765 19.2408 114.647 19.5742 114.43 19.888C114.213 20.2018 113.918 20.3979 113.543 20.5352L111.849 21.104L112.184 22.1435L113.8 21.5943C114.095 21.4963 114.371 21.3394 114.607 21.1629C114.844 20.9863 115.06 20.7706 115.238 20.5352C115.415 20.2999 115.553 20.0253 115.651 19.7311C115.75 19.4369 115.809 19.1427 115.809 18.8289V18.3582C115.927 18.5347 116.085 18.6524 116.282 18.7308C116.479 18.8093 116.656 18.8485 116.873 18.8485H117.956H126.328C126.584 18.8485 126.84 18.7897 127.076 18.6916C127.313 18.5935 127.53 18.4562 127.707 18.2797C127.884 18.1032 128.022 17.9071 128.14 17.6521C128.239 17.4167 128.298 17.1618 128.298 16.8872V15.9261C128.298 15.6515 128.239 15.3966 128.14 15.1612C128.042 14.9258 127.904 14.7297 127.727 14.5532Z" fill="#333333"/>
<path d="M122.073 10.1213L121.502 9.61133L118.704 12.8867L119.295 13.3575L122.073 10.1213Z" fill="#333333"/>
<path d="M135.389 9.61133H134.306V18.8492H135.389V9.61133Z" fill="#333333"/>
<path d="M115.888 11.4746H114.647V12.7102H115.888V11.4746Z" fill="#333333"/>
<path d="M84.9803 20.7109H83.7393V21.9466H84.9803V20.7109Z" fill="#333333"/>
<path d="M86.8516 20.7109H85.6106V21.9466H86.8516V20.7109Z" fill="#333333"/>
</g>
<defs>
<clipPath id="clip0_46_733">
<rect width="136" height="22.163" fill="white"/>
</clipPath>
</defs>
</svg>
